HIERARCHY
ROOT hip
{
	OFFSET 0.000000 0.000000 0.000000 
	CHANNELS 6 Xposition Yposition Zposition Zrotation Xrotation Yrotation
	JOINT abdomen
	{
		OFFSET 0.000000 3.402643 0.000000 
		CHANNELS 3 Zrotation Xrotation Yrotation
		JOINT chest
		{
			OFFSET 0.000000 8.438565 -0.680529 
			CHANNELS 3 Zrotation Xrotation Yrotation
			JOINT neck
			{
				OFFSET 0.000000 10.207942 -0.272212 
				CHANNELS 3 Zrotation Xrotation Yrotation
				JOINT head
				{
					OFFSET 0.000000 3.130431 0.000000 
					CHANNELS 3 Zrotation Xrotation Yrotation
					End Site
					{
						OFFSET 0.000000 3.130435 0.000000 
					}
				}
			}
			JOINT lCollar
			{
				OFFSET 3.470700 6.669187 -0.816635 
				CHANNELS 3 Zrotation Xrotation Yrotation
				JOINT lShldr
				{
					OFFSET 3.198488 0.000000 0.000000 
					CHANNELS 3 Zrotation Xrotation Yrotation
					JOINT lForeArm
					{
						OFFSET 10.139888 0.000000 0.000000 
						CHANNELS 3 Zrotation Xrotation Yrotation
						JOINT lHand
						{
							OFFSET 8.370511 0.000000 0.000000 
							CHANNELS 3 Zrotation Xrotation Yrotation
							End Site
							{
								OFFSET 4.083176 0.000000 0.000000 
							}
						}
					}
				}
			}
			JOINT rCollar
			{
				OFFSET -3.470700 6.669187 -0.816635 
				CHANNELS 3 Zrotation Xrotation Yrotation
				JOINT rShldr
				{
					OFFSET -3.198488 0.000000 0.000000 
					CHANNELS 3 Zrotation Xrotation Yrotation
					JOINT rForeArm
					{
						OFFSET -10.139888 0.000000 0.000000 
						CHANNELS 3 Zrotation Xrotation Yrotation
						JOINT rHand
						{
							OFFSET -8.370511 0.000000 0.000000 
							CHANNELS 3 Zrotation Xrotation Yrotation
							End Site
							{
								OFFSET -4.083176 0.000000 0.000000 
							}
						}
					}
				}
			}
		}
	}
	JOINT lThigh
	{
		OFFSET 5.308129 -1.633274 1.361059 
		CHANNELS 3 Zrotation Xrotation Yrotation
		JOINT lShin
		{
			OFFSET -2.041588 -20.007561 0.000000 
			CHANNELS 3 Zrotation Xrotation Yrotation
			JOINT lFoot
			{
				OFFSET 0.000000 -19.190928 -1.224953 
				CHANNELS 3 Zrotation Xrotation Yrotation
				End Site
				{
					OFFSET 0.000000 -2.449906 4.627600 
				}
			}
		}
	}
	JOINT rThigh
	{
		OFFSET -5.308129 -1.633274 1.361059 
		CHANNELS 3 Zrotation Xrotation Yrotation
		JOINT rShin
		{
			OFFSET 2.041588 -20.007561 0.000000 
			CHANNELS 3 Zrotation Xrotation Yrotation
			JOINT rFoot
			{
				OFFSET 0.000000 -19.190928 -1.224953 
				CHANNELS 3 Zrotation Xrotation Yrotation
				End Site
				{
					OFFSET 0.000000 -2.449906 4.627600 
				}
			}
		}
	}
}
MOTION
Frames: 13
Frame Time: 0.033333
0.553970 38.355042 4.057510 2.337435 3.112651 7.685511 -0.908383 1.142438 -5.558214 0.009821 6.054684 -7.286192 -0.078200 -2.509767 0.387188 -2.221548 3.747189 3.367915 6.458427 -0.248999 -9.112084 -74.086319 6.609684 -30.014679 11.214684 14.153963 -37.369926 5.394233 0.054910 -13.215565 3.144233 -0.414260 -3.607860 72.204552 1.981932 -15.624819 -9.463192 13.327071 33.059273 -10.380116 -0.524756 6.334458 -0.413012 -6.798717 -0.149305 -118.379211 84.081482 109.707161 6.524035 -33.853153 1.663160 -6.797828 -53.544186 -7.787858 -5.043154 65.737640 6.268947 -1.411577 -20.739841 -5.949410 
0.297238 38.446819 4.057509 4.226544 3.476871 6.433385 -3.058806 2.155131 -2.424446 -0.138088 8.076153 -4.570468 -0.263939 -2.578102 0.134612 -1.714692 4.675648 0.383663 5.034328 -0.313464 -6.099376 -76.078819 7.809765 -24.480013 13.771304 15.337637 -40.864632 8.866934 -0.198453 -13.649227 4.687699 -2.439650 -0.691636 71.086411 -3.415481 -8.902661 -6.657671 11.480039 27.616987 -9.211522 -0.465809 3.035120 -0.884061 -16.051044 2.011432 -167.691238 71.794472 159.393311 3.460901 -34.641491 1.504784 -6.384163 -47.281799 -4.464789 1.211132 72.151207 2.061273 -5.914860 -30.008347 -9.216374 
0.068725 39.545818 4.057505 5.269852 2.771448 3.065680 -4.339231 2.229923 -0.407749 -0.475544 9.696943 -1.062477 -0.420374 -2.656183 -0.097607 -0.957662 2.079787 -1.664461 5.194373 -0.345486 -2.830113 -78.871742 4.010958 -12.707423 12.163816 14.335508 -39.050987 8.928879 -0.234437 -10.924115 2.321809 -5.060616 3.037254 72.046127 -4.208509 -0.861699 -5.254008 9.813869 25.648392 -5.378700 -0.459680 -1.299457 -4.785258 -36.645390 4.412923 -176.101318 57.414391 166.165131 7.927742 -37.640736 12.950171 -6.136581 -38.854469 -1.422446 7.699518 73.598404 -2.600999 -8.449759 -34.317638 -10.655123 
-0.084921 40.530453 4.057510 5.267454 2.168543 -0.921638 -4.179691 0.058439 1.331684 -0.862870 10.057482 2.621258 -0.390986 -2.460884 -0.348819 0.078177 -2.089840 -3.073320 6.018736 1.138352 0.339978 -78.242744 -0.712957 -0.830143 11.909626 14.632906 -37.739956 8.863675 -0.249244 -7.345846 -3.355346 -6.832181 6.288659 73.727165 -1.462055 7.482919 -6.245610 9.512332 30.755491 -4.265929 -0.073836 1.837191 -6.652554 -62.406597 1.691064 -166.559357 73.962448 156.810593 2.934307 -19.693056 11.388587 -3.523550 -32.278484 1.642018 0.914851 77.045540 2.901006 -8.133053 -38.533558 -9.207882 
-0.128205 41.028290 4.057510 4.222038 2.259467 -4.375738 -3.177782 -2.856928 2.946918 -1.680585 8.941527 5.808183 -0.293134 -1.923804 -0.517703 1.900884 -4.684929 -3.848269 7.025544 1.878843 3.189815 -76.715759 -2.912844 9.015652 11.821632 14.443225 -37.867939 10.602405 -0.267290 -4.186186 -5.746103 -7.530736 7.767891 74.207588 1.116693 14.768496 -8.881945 11.826274 34.359245 -3.413112 -0.048312 2.492383 -9.074768 -62.753986 -2.025577 -1.140869 78.745880 -3.748313 0.983020 -11.357808 7.577321 -1.454312 -24.044899 3.156043 -9.655675 76.071510 12.267892 -5.738083 -38.569565 -5.118191 
-0.053061 40.585392 4.057510 2.336835 2.829658 -6.980660 -1.281984 -3.710014 4.379924 -2.117004 7.348554 7.624054 -0.263703 -0.878901 -0.599748 3.141513 -3.754133 -4.100745 7.920480 1.224978 5.126483 -77.646523 -2.681571 16.248753 11.786105 14.856047 -37.060337 12.063760 -0.257410 -1.083351 -6.659389 -6.628316 7.350160 73.306366 3.054123 20.107914 -12.236526 14.518878 37.701427 -2.220620 0.287023 6.117593 -2.508454 -61.363422 2.882198 -1.720337 63.495621 -2.020511 2.228638 -10.043824 7.713615 -0.374308 -14.937981 4.621193 -6.357061 73.208130 9.329676 -3.220809 -38.732285 -2.108227 
0.131256 39.459106 4.057510 0.000000 3.378896 -7.949218 0.644844 -1.786994 5.283891 -1.977381 6.939263 7.504288 -0.419934 0.429678 -0.553492 3.417969 0.000001 -3.984375 8.074971 0.514840 5.694811 -80.068527 -0.666346 18.614590 11.358040 15.791745 -34.515522 11.374366 -0.190496 3.017895 -6.571341 -4.316372 6.094691 72.354515 4.407862 22.952610 -14.407477 15.269437 40.989365 -1.766420 0.735139 12.323117 7.313163 -66.414787 11.765626 -6.631452 69.746620 1.699664 3.365197 -14.941945 7.689560 -0.502819 -8.033438 2.767982 -1.567100 77.776077 5.406829 -1.240683 -36.623745 -1.613206 
0.374888 38.426418 4.057510 -2.348091 3.483402 -7.005690 1.455104 0.341684 4.737667 -2.169313 7.953355 5.593272 -1.406569 1.220333 -0.028632 3.063187 3.744658 -3.403371 6.783661 0.210895 4.809852 -82.648903 1.673650 14.478968 10.179843 16.667095 -30.288193 9.522900 -0.123045 5.905890 -4.351530 -2.307600 4.569505 73.118790 4.596855 23.321625 -13.288561 14.707755 39.566433 -2.259495 0.390040 8.809702 6.189883 -56.003265 12.638033 0.935467 66.986679 -3.404802 5.923624 -18.539251 2.068095 -0.705963 -5.580397 -2.004699 -10.366931 85.817551 14.052829 0.854023 -28.283703 -2.555238 
0.613233 38.493858 4.057510 -4.235768 3.350205 -4.674612 1.563260 1.786444 3.232755 -2.137425 9.290519 2.776505 -2.266335 1.434421 0.105204 2.390766 4.673681 -2.128102 6.186832 -0.161437 2.757364 -82.720657 0.232999 6.210989 8.337539 16.080473 -26.412781 7.781185 -0.139471 4.593340 -3.865838 -1.100834 2.260773 75.490349 3.836957 19.341946 -11.248023 14.475747 35.158028 -3.982287 0.254910 5.858006 6.027781 -50.878994 10.176110 1.064387 73.453491 -3.976475 6.932382 -23.842186 1.149858 -2.090533 -13.843466 -8.905039 -173.415085 75.190300 177.292038 -0.261736 -29.515635 -3.405311 
0.805957 39.532055 4.057510 -5.281100 3.082570 -1.835242 1.836952 1.903319 0.993656 -1.218225 9.597483 -0.333970 -2.842360 1.141168 0.163593 1.651478 2.079215 -0.304075 6.796119 -0.749118 -0.058187 -81.220207 -2.384638 -4.672022 6.532152 14.135085 -23.999338 6.367835 -0.239647 0.744829 -3.420842 -0.354060 -0.448430 75.752403 3.208813 10.514720 -10.275565 14.983605 31.814669 -6.551379 -0.109121 4.941033 3.277073 -45.306362 4.878492 0.877457 75.647896 -4.037667 4.659814 -28.866257 1.390275 -2.189620 -29.052687 -14.522090 -174.536453 56.926804 177.966263 -2.787389 -31.976612 -7.457796 
0.923760 40.603374 4.057510 -5.279939 2.839473 1.316088 2.529852 1.200002 -1.283054 0.316188 8.759632 -3.436771 -3.066488 0.419313 0.168947 1.358325 -2.089258 1.612029 7.893787 -1.540917 -3.270055 -79.606743 -3.338528 -15.808780 5.696064 12.287577 -24.341288 4.791665 -0.351691 -0.525370 -2.810025 -0.283382 -2.779939 75.076447 2.792406 -0.967947 -11.110003 14.840305 34.409325 -9.459629 -0.312843 3.576795 2.171103 -38.502750 0.039262 -13.022487 75.698105 6.873400 5.390042 -32.115398 3.984619 -2.961604 -53.585205 -19.842102 -174.389359 46.932594 177.535019 -3.807607 -26.926487 -12.548770 
0.949602 41.140808 4.057510 -4.232849 2.590567 4.429228 2.666066 0.360935 -3.697997 0.648909 6.659733 -6.002883 -2.705096 -0.214608 0.448844 0.891654 -4.686937 3.402942 8.867819 -1.970886 -6.484607 -78.421593 -2.756175 -23.622736 6.434262 12.545089 -26.515106 2.906750 -0.188333 -0.052491 -1.974940 -0.605056 -4.314211 74.806252 4.181984 -11.515454 -13.126124 14.839048 39.359703 -10.842886 -0.388161 3.165219 2.094240 -28.781912 -2.202019 -23.631687 73.313560 13.440412 8.574365 -34.159813 5.917892 -12.215673 -72.292221 -24.362665 -173.388947 54.763733 175.907211 0.954278 -20.281311 -10.059917 
0.000000 48.013634 0.291666 -0.000000 -0.000010 -0.000000 -0.000000 -0.000002 -0.000000 -0.000000 -0.000005 -0.000000 -0.000000 -0.000003 -0.000000 -0.000000 0.000002 -0.000000 -5.687433 -0.268816 2.011537 -72.947174 15.738562 10.363277 -8.608581 3.601589 -19.084562 5.932204 -0.060074 -3.367898 5.677637 -0.269440 -2.021283 72.845581 15.651626 -10.368967 8.610637 3.604901 19.224098 -5.954628 -0.010892 3.161964 2.265482 -7.561093 0.823286 -2.237470 14.078683 -0.708753 -0.347358 -6.845996 0.094901 -4.381215 -7.522904 -0.504117 1.821899 14.015642 -0.257338 1.536438 -7.293935 -1.540785 
